<svg width="24" height="25" viewBox="0 0 24 25" fill="none" xmlns="http://www.w3.org/2000/svg">
<path d="M14 15.3135V9.68646C14 6.54126 14 4.96866 13.0747 4.5773C12.1494 4.18593 11.0603 5.29793 8.88232 7.52192C7.75439 8.67365 7.11085 8.92869 5.50604 8.92869C4.10257 8.92869 3.40084 8.92869 2.89675 9.27262C1.85035 9.98655 2.00852 11.382 2.00852 12.5C2.00852 13.618 1.85035 15.0134 2.89675 15.7274C3.40084 16.0713 4.10257 16.0713 5.50604 16.0713C7.11085 16.0713 7.75439 16.3264 8.88232 17.4781C11.0603 19.7021 12.1494 20.8141 13.0747 20.4227C14 20.0313 14 18.4587 14 15.3135Z" stroke="#1DC168" stroke-width="1.5" stroke-linecap="round" stroke-linejoin="round"/>
<path d="M17 9.5C17.6254 10.3197 18 11.3634 18 12.5C18 13.6366 17.6254 14.6803 17 15.5" stroke="#1DC168" stroke-width="1.5" stroke-linecap="round" stroke-linejoin="round"/>
<path d="M20 7.5C21.2508 8.86613 22 10.6057 22 12.5C22 14.3943 21.2508 16.1339 20 17.5" stroke="#1DC168" stroke-width="1.5" stroke-linecap="round" stroke-linejoin="round"/>
</svg>
