<svg width="25" height="24" viewBox="0 0 25 24" fill="none" xmlns="http://www.w3.org/2000/svg">
<path d="M8.3335 2V18" stroke="white" stroke-width="1.5" stroke-linecap="round" stroke-linejoin="round"/>
<path d="M20.3335 22H6.3335C5.22893 22 4.3335 21.1046 4.3335 20M4.3335 20C4.3335 18.8954 5.22893 18 6.3335 18H20.3335V6C20.3335 4.11438 20.3335 3.17157 19.7477 2.58579C19.1619 2 18.2191 2 16.3335 2H10.3335C7.50507 2 6.09086 2 5.21218 2.87868C4.3335 3.75736 4.3335 5.17157 4.3335 8V20Z" stroke="white" stroke-width="1.5" stroke-linecap="round" stroke-linejoin="round"/>
<path d="M19.8335 18C19.8335 18 18.8335 18.7628 18.8335 20C18.8335 21.2372 19.8335 22 19.8335 22" stroke="white" stroke-width="1.5" stroke-linecap="round" stroke-linejoin="round"/>
</svg>
