<svg width="20" height="20" viewBox="0 0 20 20" fill="none" xmlns="http://www.w3.org/2000/svg">
<path d="M6.66666 1.66675V15.0001" stroke="#255FE5" stroke-width="1.25" stroke-linecap="round" stroke-linejoin="round"/>
<path d="M16.6667 18.3334H5.00001C4.07954 18.3334 3.33334 17.5872 3.33334 16.6667M3.33334 16.6667C3.33334 15.7462 4.07954 15.0001 5.00001 15.0001H16.6667V5.00008C16.6667 3.42873 16.6667 2.64306 16.1785 2.15491C15.6903 1.66675 14.9047 1.66675 13.3333 1.66675H8.33334C5.97632 1.66675 4.79781 1.66675 4.06558 2.39898C3.33334 3.13121 3.33334 4.30972 3.33334 6.66675V16.6667Z" stroke="#255FE5" stroke-width="1.25" stroke-linecap="round" stroke-linejoin="round"/>
<path d="M16.25 15C16.25 15 15.4167 15.6357 15.4167 16.6667C15.4167 17.6977 16.25 18.3333 16.25 18.3333" stroke="#255FE5" stroke-width="1.25" stroke-linecap="round" stroke-linejoin="round"/>
</svg>
