<svg width="40" height="40" viewBox="0 0 40 40" fill="none" xmlns="http://www.w3.org/2000/svg">
<rect width="40" height="40" rx="8" fill="#3588F2"/>
<path d="M16 10V26" stroke="white" stroke-width="1.5" stroke-linecap="round" stroke-linejoin="round"/>
<path d="M28 30H14C12.8954 30 12 29.1046 12 28M12 28C12 26.8954 12.8954 26 14 26H28V14C28 12.1144 28 11.1716 27.4142 10.5858C26.8284 10 25.8856 10 24 10H18C15.1716 10 13.7574 10 12.8787 10.8787C12 11.7574 12 13.1716 12 16V28Z" stroke="white" stroke-width="1.5" stroke-linecap="round" stroke-linejoin="round"/>
<path d="M27.5 26C27.5 26 26.5 26.7628 26.5 28C26.5 29.2372 27.5 30 27.5 30" stroke="white" stroke-width="1.5" stroke-linecap="round" stroke-linejoin="round"/>
</svg>
