<svg width="20" height="21" viewBox="0 0 20 21" fill="none" xmlns="http://www.w3.org/2000/svg">
<path d="M1.6665 5.5L7.42735 8.76414C9.55117 9.9675 10.4485 9.9675 12.5723 8.76414L18.3332 5.5" stroke="#255FE5" stroke-width="1.25" stroke-linejoin="round"/>
<path d="M1.67965 11.7297C1.73412 14.2844 1.76136 15.5617 2.70397 16.5079C3.64657 17.4541 4.95845 17.487 7.5822 17.5529C9.19925 17.5936 10.8004 17.5936 12.4175 17.5529C15.0413 17.487 16.3531 17.4541 17.2958 16.5079C18.2383 15.5617 18.2656 14.2844 18.32 11.7297C18.3376 10.9083 18.3376 10.0918 18.32 9.27042C18.2656 6.7158 18.2383 5.43849 17.2958 4.4923C16.3531 3.54611 15.0413 3.51315 12.4175 3.44722C10.8004 3.40659 9.19925 3.40659 7.58219 3.44722C4.95845 3.51313 3.64657 3.54609 2.70396 4.49229C1.76135 5.43848 1.73412 6.71579 1.67964 9.27042C1.66212 10.0918 1.66213 10.9083 1.67965 11.7297Z" stroke="#255FE5" stroke-width="1.25" stroke-linejoin="round"/>
</svg>
