<svg width="24" height="25" viewBox="0 0 24 25" fill="none" xmlns="http://www.w3.org/2000/svg">
<path d="M19.543 2.5H6.5C5.11929 2.5 4 3.61929 4 5C4 5.0454 4.00121 5.09053 4.0036 5.13533M4.0036 5.13533C4.0739 6.45312 5.16469 7.5 6.5 7.5H16C17.8856 7.5 18.8284 7.5 19.4142 8.08579C20 8.67157 20 9.61438 20 11.5V18.5C20 20.3856 20 21.3284 19.4142 21.9142C18.8284 22.5 17.8856 22.5 16 22.5H10.0036C7.17517 22.5 5.76096 22.5 4.88228 21.6213C4.0036 20.7426 4.0036 19.3284 4.0036 16.5V5.13533ZM4.0036 5.13533V5.00127M6.5 5H16C16.9428 5 17.4142 5 17.7071 5.29289C18 5.58579 18 6.05719 18 7" stroke="#B752E2" stroke-width="1.5" stroke-linecap="round" stroke-linejoin="round"/>
<path d="M15.5 13H8.5M12.5 17H8.5" stroke="#B752E2" stroke-width="1.5" stroke-linecap="round" stroke-linejoin="round"/>
</svg>
