<svg width="40" height="40" viewBox="0 0 40 40" fill="none" xmlns="http://www.w3.org/2000/svg">
<rect width="40" height="40" rx="8" fill="#1DC168"/>
<path d="M11.3235 21.0113C11.6739 18.009 12.1858 15.7578 12.6606 14.1585C13.0499 12.8471 13.2446 12.1914 14.0428 11.5957C14.841 11 15.6569 11 17.2887 11H22.7112C24.343 11 25.1589 11 25.9572 11.5957C26.7554 12.1914 26.9501 12.8471 27.3394 14.1585C27.8142 15.7578 28.3261 18.009 28.6765 21.0113C29.0894 24.5497 29.2959 26.3189 28.1027 27.6594C26.9095 29 24.9758 29 21.1084 29H18.8916C15.0242 29 13.0905 29 11.8973 27.6594C10.7041 26.3189 10.9106 24.5497 11.3235 21.0113Z" stroke="white" stroke-width="1.5" stroke-linecap="round" stroke-linejoin="round"/>
<path d="M17 15C17 16.6568 18.3431 18 20 18C21.6568 18 23 16.6568 23 15" stroke="white" stroke-width="1.5" stroke-linecap="round" stroke-linejoin="round"/>
</svg>
