<svg width="40" height="41" viewBox="0 0 40 41" fill="none" xmlns="http://www.w3.org/2000/svg">
<rect y="0.5" width="40" height="40" rx="8" fill="#255FE5"/>
<path d="M17 10.5V16C17 16.5523 16.5523 17 16 17H11C10.4477 17 10 17.4477 10 18V23C10 23.5523 10.4477 24 11 24H16C16.5523 24 17 24.4477 17 25V30C17 30.5523 17.4477 31 18 31H22.5C23.0523 31 23.5 30.5523 23.5 30V25C23.5 24.4477 23.9477 24 24.5 24H29.5C30.0523 24 30.5 23.5523 30.5 23V18C30.5 17.4477 30.0523 17 29.5 17H24.5C23.9477 17 23.5 16.5523 23.5 16V10.5C23.5 9.94772 23.0523 9.5 22.5 9.5H18C17.4477 9.5 17 9.94772 17 10.5Z" stroke="white"/>
</svg>
